<mxfile host="app.diagrams.net" modified="2024-05-14T12:34:58.127Z" agent="Mozilla/5.0 (X11; Linux x86_64) AppleWebKit/537.36 (KHTML, like Gecko) Chrome/124.0.0.0 Safari/537.36" etag="PK1Pbl0x3GvI7upklFNY" version="24.4.0" type="device">
  <diagram name="Page-1" id="cxomBGfu5NSoitH5zxJZ">
    <mxGraphModel dx="1434" dy="786" grid="1" gridSize="10" guides="1" tooltips="1" connect="1" arrows="1" fold="1" page="1" pageScale="1" pageWidth="850" pageHeight="1100" math="0" shadow="0">
      <root>
        <mxCell id="0" />
        <mxCell id="1" parent="0" />
        <mxCell id="7TVP8BZc2OqgaSh1Xt-x-21" value="" style="rounded=0;whiteSpace=wrap;html=1;fillColor=#d5e8d4;strokeColor=#82b366;" vertex="1" parent="1">
          <mxGeometry x="170" y="80" width="630" height="580" as="geometry" />
        </mxCell>
        <mxCell id="7TVP8BZc2OqgaSh1Xt-x-12" style="edgeStyle=orthogonalEdgeStyle;rounded=0;orthogonalLoop=1;jettySize=auto;html=1;entryX=0;entryY=0.5;entryDx=0;entryDy=0;" edge="1" parent="1" source="7TVP8BZc2OqgaSh1Xt-x-1" target="7TVP8BZc2OqgaSh1Xt-x-7">
          <mxGeometry relative="1" as="geometry" />
        </mxCell>
        <mxCell id="7TVP8BZc2OqgaSh1Xt-x-19" style="edgeStyle=orthogonalEdgeStyle;rounded=0;orthogonalLoop=1;jettySize=auto;html=1;entryX=0.5;entryY=0;entryDx=0;entryDy=0;" edge="1" parent="1" source="7TVP8BZc2OqgaSh1Xt-x-1" target="7TVP8BZc2OqgaSh1Xt-x-6">
          <mxGeometry relative="1" as="geometry" />
        </mxCell>
        <mxCell id="7TVP8BZc2OqgaSh1Xt-x-1" value="Verify if in codebase" style="rhombus;whiteSpace=wrap;html=1;" vertex="1" parent="1">
          <mxGeometry x="370" y="230" width="80" height="80" as="geometry" />
        </mxCell>
        <mxCell id="7TVP8BZc2OqgaSh1Xt-x-3" style="edgeStyle=orthogonalEdgeStyle;rounded=0;orthogonalLoop=1;jettySize=auto;html=1;entryX=0;entryY=0.5;entryDx=0;entryDy=0;" edge="1" parent="1" source="7TVP8BZc2OqgaSh1Xt-x-2" target="7TVP8BZc2OqgaSh1Xt-x-1">
          <mxGeometry relative="1" as="geometry" />
        </mxCell>
        <mxCell id="7TVP8BZc2OqgaSh1Xt-x-2" value="Action gets requested in domain description" style="rounded=0;whiteSpace=wrap;html=1;" vertex="1" parent="1">
          <mxGeometry x="190" y="240" width="120" height="60" as="geometry" />
        </mxCell>
        <mxCell id="7TVP8BZc2OqgaSh1Xt-x-5" style="edgeStyle=orthogonalEdgeStyle;rounded=0;orthogonalLoop=1;jettySize=auto;html=1;entryX=0.5;entryY=0;entryDx=0;entryDy=0;" edge="1" parent="1" source="7TVP8BZc2OqgaSh1Xt-x-4" target="7TVP8BZc2OqgaSh1Xt-x-1">
          <mxGeometry relative="1" as="geometry" />
        </mxCell>
        <mxCell id="7TVP8BZc2OqgaSh1Xt-x-4" value="Database" style="shape=cylinder3;whiteSpace=wrap;html=1;boundedLbl=1;backgroundOutline=1;size=15;" vertex="1" parent="1">
          <mxGeometry x="380" y="90" width="60" height="80" as="geometry" />
        </mxCell>
        <mxCell id="7TVP8BZc2OqgaSh1Xt-x-6" value="build domain including action" style="rounded=0;whiteSpace=wrap;html=1;" vertex="1" parent="1">
          <mxGeometry x="350" y="335" width="120" height="60" as="geometry" />
        </mxCell>
        <mxCell id="7TVP8BZc2OqgaSh1Xt-x-13" style="edgeStyle=orthogonalEdgeStyle;rounded=0;orthogonalLoop=1;jettySize=auto;html=1;entryX=1;entryY=0.25;entryDx=0;entryDy=0;" edge="1" parent="1" source="7TVP8BZc2OqgaSh1Xt-x-7" target="7TVP8BZc2OqgaSh1Xt-x-8">
          <mxGeometry relative="1" as="geometry">
            <Array as="points">
              <mxPoint x="750" y="270" />
              <mxPoint x="750" y="350" />
            </Array>
          </mxGeometry>
        </mxCell>
        <mxCell id="7TVP8BZc2OqgaSh1Xt-x-7" value="Ask for more information about requested action. Suggest sequence of actions and ask to confirm or modify" style="rounded=0;whiteSpace=wrap;html=1;align=center;" vertex="1" parent="1">
          <mxGeometry x="540" y="230" width="190" height="80" as="geometry" />
        </mxCell>
        <mxCell id="7TVP8BZc2OqgaSh1Xt-x-15" style="edgeStyle=orthogonalEdgeStyle;rounded=0;orthogonalLoop=1;jettySize=auto;html=1;entryX=1;entryY=0.25;entryDx=0;entryDy=0;exitX=1;exitY=0.75;exitDx=0;exitDy=0;" edge="1" parent="1" source="7TVP8BZc2OqgaSh1Xt-x-8" target="7TVP8BZc2OqgaSh1Xt-x-9">
          <mxGeometry relative="1" as="geometry">
            <Array as="points">
              <mxPoint x="660" y="365" />
              <mxPoint x="690" y="365" />
              <mxPoint x="690" y="430" />
            </Array>
          </mxGeometry>
        </mxCell>
        <mxCell id="7TVP8BZc2OqgaSh1Xt-x-8" value="Generate domain and problem to accomplish said action" style="rounded=0;whiteSpace=wrap;html=1;" vertex="1" parent="1">
          <mxGeometry x="540" y="335" width="120" height="60" as="geometry" />
        </mxCell>
        <mxCell id="7TVP8BZc2OqgaSh1Xt-x-16" style="edgeStyle=orthogonalEdgeStyle;rounded=0;orthogonalLoop=1;jettySize=auto;html=1;entryX=1;entryY=0.25;entryDx=0;entryDy=0;" edge="1" parent="1" source="7TVP8BZc2OqgaSh1Xt-x-9" target="7TVP8BZc2OqgaSh1Xt-x-10">
          <mxGeometry relative="1" as="geometry">
            <Array as="points">
              <mxPoint x="705" y="445" />
              <mxPoint x="705" y="513" />
            </Array>
          </mxGeometry>
        </mxCell>
        <mxCell id="7TVP8BZc2OqgaSh1Xt-x-9" value="Generate Plan" style="rounded=0;whiteSpace=wrap;html=1;" vertex="1" parent="1">
          <mxGeometry x="540" y="415" width="120" height="60" as="geometry" />
        </mxCell>
        <mxCell id="7TVP8BZc2OqgaSh1Xt-x-10" value="Use sequence of actions described in plan to create new python method to execute action" style="rounded=0;whiteSpace=wrap;html=1;" vertex="1" parent="1">
          <mxGeometry x="540" y="495" width="145" height="70" as="geometry" />
        </mxCell>
        <mxCell id="7TVP8BZc2OqgaSh1Xt-x-11" value="Add new code to codebase" style="rounded=0;whiteSpace=wrap;html=1;" vertex="1" parent="1">
          <mxGeometry x="540" y="585" width="120" height="60" as="geometry" />
        </mxCell>
        <mxCell id="7TVP8BZc2OqgaSh1Xt-x-17" style="edgeStyle=orthogonalEdgeStyle;rounded=0;orthogonalLoop=1;jettySize=auto;html=1;entryX=1;entryY=0.367;entryDx=0;entryDy=0;entryPerimeter=0;" edge="1" parent="1" source="7TVP8BZc2OqgaSh1Xt-x-10" target="7TVP8BZc2OqgaSh1Xt-x-11">
          <mxGeometry relative="1" as="geometry">
            <Array as="points">
              <mxPoint x="700" y="530" />
              <mxPoint x="700" y="607" />
            </Array>
          </mxGeometry>
        </mxCell>
        <mxCell id="7TVP8BZc2OqgaSh1Xt-x-18" style="edgeStyle=orthogonalEdgeStyle;rounded=0;orthogonalLoop=1;jettySize=auto;html=1;entryX=1;entryY=0.5;entryDx=0;entryDy=0;entryPerimeter=0;" edge="1" parent="1" source="7TVP8BZc2OqgaSh1Xt-x-11" target="7TVP8BZc2OqgaSh1Xt-x-4">
          <mxGeometry relative="1" as="geometry">
            <Array as="points">
              <mxPoint x="790" y="615" />
              <mxPoint x="790" y="130" />
            </Array>
          </mxGeometry>
        </mxCell>
        <mxCell id="7TVP8BZc2OqgaSh1Xt-x-20" value="&lt;h1 style=&quot;margin-top: 0px;&quot;&gt;&lt;span style=&quot;background-color: initial;&quot;&gt;Codebase expansion&lt;/span&gt;&lt;br&gt;&lt;/h1&gt;&lt;div&gt;&lt;span style=&quot;background-color: initial;&quot;&gt;As codebase wrapper grows, more and more abstracted and complex domains can be crafted. Make sure to learn lessons from the past think x86 CISC. need to purge some stuff once in a while. Figure that out later&lt;/span&gt;&lt;/div&gt;" style="text;html=1;whiteSpace=wrap;overflow=hidden;rounded=0;" vertex="1" parent="1">
          <mxGeometry x="220" y="430" width="280" height="135" as="geometry" />
        </mxCell>
      </root>
    </mxGraphModel>
  </diagram>
</mxfile>
